<?xml version="1.0" encoding="utf-8"?>
<!-- Generator: Adobe Illustrator 26.0.3, SVG Export Plug-In . SVG Version: 6.00 Build 0)  -->
<svg version="1.1" id="Layer_1" xmlns="http://www.w3.org/2000/svg" xmlns:xlink="http://www.w3.org/1999/xlink" x="0px" y="0px"
	 viewBox="0 0 300 120.01" style="enable-background:new 0 0 300 120.01;" xml:space="preserve">
<style type="text/css">
	.st0{fill:#FFFFFF;}
	.st1{fill:#298A9E;}
</style>
<path class="st0" d="M90.8,48.01c-1.81,0-3.32-0.27-4.54-0.8c-1.22-0.53-2.14-1.23-2.77-2.1c-0.63-0.87-0.97-1.78-1.01-2.73
	c0-0.17,0.06-0.32,0.18-0.44c0.12-0.12,0.26-0.18,0.44-0.18h2.6c0.25,0,0.44,0.05,0.57,0.16c0.13,0.11,0.24,0.24,0.34,0.39
	c0.12,0.37,0.34,0.74,0.67,1.1c0.33,0.36,0.78,0.66,1.36,0.89c0.57,0.23,1.3,0.35,2.18,0.35c1.4,0,2.45-0.23,3.14-0.7
	c0.69-0.47,1.04-1.1,1.04-1.9c0-0.56-0.19-1.02-0.56-1.36c-0.37-0.34-0.94-0.65-1.71-0.93c-0.77-0.28-1.79-0.58-3.05-0.89
	c-1.46-0.35-2.68-0.77-3.66-1.27c-0.98-0.5-1.72-1.12-2.22-1.88c-0.5-0.76-0.74-1.72-0.74-2.89c0-1.13,0.31-2.13,0.92-3.01
	c0.61-0.88,1.49-1.57,2.63-2.07c1.14-0.51,2.5-0.76,4.07-0.76c1.26,0,2.38,0.17,3.36,0.51c0.97,0.34,1.78,0.79,2.42,1.34
	c0.64,0.55,1.13,1.15,1.47,1.78c0.34,0.63,0.52,1.25,0.54,1.85c0,0.16-0.05,0.3-0.16,0.42c-0.11,0.13-0.26,0.19-0.45,0.19h-2.72
	c-0.16,0-0.31-0.04-0.47-0.12c-0.16-0.08-0.28-0.22-0.38-0.44c-0.12-0.6-0.5-1.12-1.14-1.55c-0.64-0.43-1.47-0.64-2.48-0.64
	c-1.05,0-1.9,0.2-2.54,0.58c-0.64,0.39-0.96,0.99-0.96,1.81c0,0.55,0.16,1,0.48,1.36c0.32,0.36,0.84,0.68,1.55,0.95
	c0.71,0.27,1.65,0.56,2.82,0.87c1.66,0.37,3.01,0.8,4.06,1.29c1.05,0.49,1.82,1.1,2.31,1.85c0.49,0.75,0.73,1.7,0.73,2.85
	c0,1.28-0.35,2.38-1.04,3.28c-0.69,0.9-1.66,1.6-2.9,2.09C93.9,47.77,92.45,48.01,90.8,48.01"/>
<path class="st0" d="M108.43,47.72c-0.2,0-0.36-0.07-0.5-0.2c-0.14-0.14-0.2-0.3-0.2-0.5V30.88h-5.4c-0.19,0-0.36-0.07-0.5-0.2
	c-0.14-0.14-0.21-0.3-0.21-0.5v-2.16c0-0.21,0.07-0.39,0.21-0.53c0.14-0.14,0.3-0.2,0.5-0.2h14.89c0.21,0,0.39,0.07,0.52,0.2
	c0.14,0.14,0.21,0.31,0.21,0.53v2.16c0,0.2-0.07,0.36-0.21,0.5c-0.14,0.14-0.31,0.2-0.52,0.2h-5.37v16.14c0,0.2-0.07,0.36-0.2,0.5
	s-0.31,0.2-0.53,0.2H108.43z"/>
<path class="st0" d="M129.39,44.66c1.27,0,2.3-0.37,3.09-1.12c0.8-0.75,1.23-1.97,1.28-3.66c0.04-0.86,0.06-1.65,0.06-2.38
	c0-0.73-0.02-1.51-0.06-2.35c-0.04-1.13-0.25-2.05-0.63-2.76c-0.38-0.71-0.89-1.23-1.53-1.55c-0.64-0.32-1.38-0.48-2.22-0.48
	c-0.82,0-1.55,0.16-2.19,0.48c-0.64,0.32-1.15,0.84-1.53,1.55c-0.38,0.71-0.59,1.63-0.63,2.76c-0.02,0.84-0.03,1.62-0.03,2.35
	c0,0.73,0.01,1.52,0.03,2.38c0.06,1.69,0.49,2.91,1.28,3.66C127.12,44.28,128.14,44.66,129.39,44.66 M129.39,48.01
	c-1.73,0-3.22-0.29-4.47-0.86c-1.25-0.57-2.22-1.46-2.92-2.66c-0.7-1.2-1.08-2.69-1.14-4.48c-0.02-0.84-0.03-1.66-0.03-2.48
	c0-0.82,0.01-1.65,0.03-2.51c0.06-1.77,0.45-3.25,1.17-4.44c0.72-1.19,1.71-2.08,2.96-2.69c1.26-0.6,2.72-0.9,4.39-0.9
	s3.14,0.3,4.41,0.9c1.27,0.6,2.26,1.5,2.98,2.69c0.72,1.19,1.11,2.67,1.17,4.44c0.04,0.86,0.06,1.69,0.06,2.51
	c0,0.82-0.02,1.65-0.06,2.48c-0.06,1.79-0.44,3.29-1.14,4.48c-0.7,1.2-1.68,2.08-2.94,2.66C132.61,47.73,131.12,48.01,129.39,48.01"
	/>
<path class="st0" d="M143.55,47.72c-0.2,0-0.36-0.07-0.5-0.2c-0.14-0.14-0.21-0.3-0.21-0.5v-19c0-0.21,0.07-0.39,0.21-0.53
	c0.14-0.14,0.3-0.2,0.5-0.2h2.25c0.27,0,0.47,0.06,0.6,0.19c0.13,0.13,0.21,0.22,0.25,0.28l8.41,13.08V28.02
	c0-0.21,0.06-0.39,0.19-0.53c0.13-0.14,0.3-0.2,0.51-0.2h2.45c0.21,0,0.39,0.07,0.53,0.2c0.14,0.14,0.21,0.31,0.21,0.53v18.97
	c0,0.22-0.07,0.39-0.21,0.53c-0.14,0.14-0.3,0.2-0.5,0.2h-2.28c-0.27,0-0.47-0.07-0.58-0.2c-0.12-0.14-0.2-0.22-0.26-0.26
	l-8.38-12.78v12.55c0,0.2-0.07,0.36-0.21,0.5s-0.31,0.2-0.53,0.2H143.55z"/>
<path class="st0" d="M170.58,47.72c-0.2,0-0.36-0.07-0.5-0.2c-0.14-0.14-0.21-0.3-0.21-0.5v-6.6l-6.89-12.2
	c-0.02-0.04-0.04-0.09-0.06-0.15c-0.02-0.06-0.03-0.12-0.03-0.18c0-0.18,0.06-0.32,0.18-0.44c0.12-0.12,0.25-0.18,0.41-0.18h2.6
	c0.23,0,0.42,0.06,0.57,0.18c0.15,0.12,0.25,0.24,0.31,0.38l4.96,8.49l4.93-8.49c0.08-0.14,0.19-0.26,0.34-0.38
	c0.15-0.12,0.34-0.18,0.57-0.18h2.57c0.18,0,0.32,0.06,0.44,0.18c0.12,0.12,0.18,0.26,0.18,0.44c0,0.06,0,0.12-0.01,0.18
	c-0.01,0.06-0.03,0.11-0.07,0.15l-6.89,12.2v6.6c0,0.2-0.07,0.36-0.2,0.5s-0.31,0.2-0.53,0.2H170.58z"/>
<path class="st0" d="M195.83,44.63h4.87c1.05,0,1.85-0.29,2.39-0.86c0.55-0.57,0.82-1.27,0.82-2.09c0-0.86-0.28-1.57-0.83-2.13
	c-0.55-0.56-1.35-0.85-2.38-0.85h-4.87V44.63z M195.83,35.67h4.58c1.03,0,1.8-0.25,2.32-0.74c0.52-0.5,0.77-1.14,0.77-1.94
	c0-0.82-0.26-1.45-0.77-1.91c-0.52-0.46-1.29-0.69-2.32-0.69h-4.58V35.67z M192.47,47.72c-0.2,0-0.36-0.07-0.5-0.2
	c-0.14-0.14-0.21-0.3-0.21-0.5v-19c0-0.21,0.07-0.39,0.21-0.53c0.14-0.14,0.3-0.2,0.5-0.2h8.47c1.58,0,2.86,0.24,3.85,0.72
	c0.99,0.48,1.73,1.13,2.2,1.97c0.48,0.84,0.72,1.81,0.72,2.92c0,0.74-0.13,1.39-0.39,1.94c-0.26,0.55-0.58,1.01-0.96,1.36
	c-0.38,0.35-0.75,0.62-1.12,0.82c0.76,0.35,1.43,0.93,2.01,1.75c0.58,0.82,0.88,1.79,0.88,2.92c0,1.17-0.26,2.21-0.79,3.12
	c-0.53,0.91-1.3,1.63-2.34,2.15c-1.03,0.52-2.31,0.77-3.82,0.77H192.47z"/>
<path class="st0" d="M216.87,36.72h4.12c1.19,0,2.07-0.27,2.66-0.8c0.58-0.54,0.88-1.29,0.88-2.26c0-0.97-0.29-1.74-0.86-2.29
	c-0.57-0.55-1.46-0.83-2.67-0.83h-4.12V36.72z M213.51,47.72c-0.2,0-0.36-0.07-0.5-0.2c-0.14-0.14-0.2-0.3-0.2-0.5v-19
	c0-0.21,0.07-0.39,0.2-0.53c0.14-0.14,0.3-0.2,0.5-0.2h7.56c2.36,0,4.21,0.55,5.58,1.64c1.36,1.09,2.04,2.68,2.04,4.76
	c0,1.44-0.36,2.64-1.07,3.59c-0.71,0.95-1.66,1.65-2.84,2.07l4.26,7.44c0.06,0.12,0.09,0.22,0.09,0.32c0,0.18-0.06,0.32-0.19,0.44
	c-0.13,0.12-0.27,0.18-0.42,0.18h-2.66c-0.33,0-0.58-0.09-0.76-0.26c-0.18-0.17-0.31-0.35-0.41-0.53l-3.77-6.92h-4.06v7.01
	c0,0.2-0.06,0.36-0.19,0.5c-0.13,0.14-0.3,0.2-0.51,0.2H213.51z"/>
<path class="st0" d="M241.28,44.66c1.27,0,2.3-0.37,3.09-1.12c0.8-0.75,1.23-1.97,1.28-3.66c0.04-0.86,0.06-1.65,0.06-2.38
	c0-0.73-0.02-1.51-0.06-2.35c-0.04-1.13-0.25-2.05-0.63-2.76c-0.38-0.71-0.89-1.23-1.53-1.55c-0.64-0.32-1.38-0.48-2.22-0.48
	c-0.82,0-1.55,0.16-2.19,0.48c-0.64,0.32-1.15,0.84-1.53,1.55c-0.38,0.71-0.59,1.63-0.63,2.76c-0.02,0.84-0.03,1.62-0.03,2.35
	c0,0.73,0.01,1.52,0.03,2.38c0.06,1.69,0.49,2.91,1.28,3.66C239.01,44.28,240.03,44.66,241.28,44.66 M241.28,48.01
	c-1.73,0-3.22-0.29-4.47-0.86c-1.25-0.57-2.22-1.46-2.92-2.66c-0.7-1.2-1.08-2.69-1.14-4.48c-0.02-0.84-0.03-1.66-0.03-2.48
	c0-0.82,0.01-1.65,0.03-2.51c0.06-1.77,0.45-3.25,1.17-4.44c0.72-1.19,1.71-2.08,2.96-2.69c1.26-0.6,2.72-0.9,4.39-0.9
	s3.14,0.3,4.41,0.9c1.26,0.6,2.26,1.5,2.98,2.69c0.72,1.19,1.11,2.67,1.17,4.44c0.04,0.86,0.06,1.69,0.06,2.51
	c0,0.82-0.02,1.65-0.06,2.48c-0.06,1.79-0.44,3.29-1.14,4.48c-0.7,1.2-1.68,2.08-2.93,2.66C244.5,47.73,243.01,48.01,241.28,48.01"
	/>
<path class="st0" d="M262.58,44.66c1.27,0,2.3-0.37,3.09-1.12c0.8-0.75,1.23-1.97,1.28-3.66c0.04-0.86,0.06-1.65,0.06-2.38
	c0-0.73-0.02-1.51-0.06-2.35c-0.04-1.13-0.25-2.05-0.63-2.76c-0.38-0.71-0.89-1.23-1.53-1.55c-0.64-0.32-1.38-0.48-2.22-0.48
	c-0.82,0-1.55,0.16-2.19,0.48c-0.64,0.32-1.15,0.84-1.53,1.55c-0.38,0.71-0.59,1.63-0.63,2.76c-0.02,0.84-0.03,1.62-0.03,2.35
	c0,0.73,0.01,1.52,0.03,2.38c0.06,1.69,0.49,2.91,1.28,3.66C260.32,44.28,261.34,44.66,262.58,44.66 M262.58,48.01
	c-1.73,0-3.22-0.29-4.47-0.86c-1.25-0.57-2.22-1.46-2.92-2.66c-0.7-1.2-1.08-2.69-1.14-4.48c-0.02-0.84-0.03-1.66-0.03-2.48
	c0-0.82,0.01-1.65,0.03-2.51c0.06-1.77,0.45-3.25,1.17-4.44c0.72-1.19,1.71-2.08,2.96-2.69c1.26-0.6,2.72-0.9,4.39-0.9
	s3.14,0.3,4.41,0.9c1.26,0.6,2.26,1.5,2.98,2.69c0.72,1.19,1.11,2.67,1.17,4.44c0.04,0.86,0.06,1.69,0.06,2.51
	c0,0.82-0.02,1.65-0.06,2.48c-0.06,1.79-0.44,3.29-1.14,4.48c-0.7,1.2-1.68,2.08-2.93,2.66C265.81,47.73,264.32,48.01,262.58,48.01"
	/>
<path class="st0" d="M276.74,47.72c-0.2,0-0.36-0.07-0.5-0.2c-0.14-0.14-0.21-0.3-0.21-0.5v-19c0-0.21,0.07-0.39,0.21-0.53
	c0.14-0.14,0.3-0.2,0.5-0.2h2.57c0.21,0,0.39,0.07,0.53,0.2c0.14,0.14,0.2,0.31,0.2,0.53v6.83l6.6-7.04
	c0.08-0.1,0.21-0.21,0.39-0.34c0.19-0.13,0.43-0.19,0.74-0.19h2.89c0.16,0,0.3,0.06,0.42,0.18c0.13,0.12,0.19,0.26,0.19,0.44
	c0,0.14-0.04,0.25-0.12,0.35l-8.03,8.82l8.58,9.66c0.1,0.12,0.15,0.24,0.15,0.38c0,0.18-0.06,0.32-0.19,0.44
	c-0.13,0.12-0.27,0.18-0.42,0.18h-3.01c-0.33,0-0.59-0.07-0.77-0.22c-0.19-0.15-0.31-0.25-0.36-0.31l-7.06-7.74v7.56
	c0,0.2-0.07,0.36-0.2,0.5c-0.14,0.14-0.31,0.2-0.53,0.2H276.74z"/>
<path class="st0" d="M88.64,71.97c-1.31,0-2.39-0.24-3.25-0.72c-0.86-0.48-1.51-1.16-1.95-2.02c-0.44-0.86-0.68-1.87-0.72-3.02
	c-0.01-0.58-0.02-1.21-0.02-1.87c0-0.67,0.01-1.31,0.02-1.92c0.04-1.15,0.28-2.16,0.72-3.03c0.44-0.86,1.09-1.54,1.95-2.02
	c0.86-0.48,1.94-0.73,3.25-0.73c0.98,0,1.84,0.14,2.58,0.41c0.74,0.27,1.35,0.63,1.84,1.09c0.49,0.45,0.86,0.96,1.12,1.52
	c0.26,0.56,0.4,1.14,0.43,1.73c0.01,0.13-0.02,0.24-0.12,0.32c-0.09,0.09-0.2,0.13-0.33,0.13h-1.17c-0.13,0-0.24-0.03-0.33-0.11
	c-0.09-0.07-0.16-0.2-0.2-0.38c-0.24-1.11-0.69-1.87-1.35-2.28c-0.66-0.41-1.49-0.62-2.48-0.62c-1.13,0-2.04,0.32-2.7,0.97
	c-0.67,0.65-1.03,1.68-1.09,3.1c-0.04,1.16-0.04,2.36,0,3.58c0.06,1.42,0.42,2.45,1.09,3.1c0.67,0.65,1.57,0.97,2.7,0.97
	c0.99,0,1.82-0.21,2.48-0.62c0.66-0.41,1.11-1.17,1.35-2.28c0.04-0.18,0.11-0.31,0.2-0.38c0.09-0.07,0.2-0.11,0.33-0.11h1.17
	c0.13,0,0.24,0.04,0.33,0.13c0.09,0.09,0.13,0.19,0.12,0.32c-0.03,0.6-0.17,1.17-0.43,1.73c-0.26,0.56-0.63,1.07-1.12,1.52
	c-0.49,0.46-1.1,0.82-1.84,1.09C90.48,71.84,89.62,71.97,88.64,71.97"/>
<path class="st0" d="M98.7,71.76c-0.16,0-0.28-0.05-0.36-0.14c-0.08-0.09-0.13-0.21-0.13-0.35v-13.9c0-0.16,0.04-0.28,0.13-0.37
	c0.09-0.09,0.21-0.14,0.36-0.14h1.09c0.16,0,0.28,0.05,0.37,0.14s0.14,0.22,0.14,0.37v5.88h7.32v-5.88c0-0.16,0.05-0.28,0.14-0.37
	c0.09-0.09,0.21-0.14,0.35-0.14h1.09c0.16,0,0.28,0.05,0.37,0.14c0.09,0.09,0.14,0.22,0.14,0.37v13.9c0,0.14-0.05,0.26-0.14,0.35
	c-0.09,0.09-0.22,0.14-0.37,0.14h-1.09c-0.14,0-0.26-0.05-0.35-0.14c-0.09-0.09-0.14-0.21-0.14-0.35v-6.11h-7.32v6.11
	c0,0.14-0.05,0.26-0.14,0.35c-0.09,0.09-0.22,0.14-0.37,0.14H98.7z"/>
<path class="st0" d="M119.75,71.97c-1.19,0-2.22-0.21-3.08-0.64c-0.86-0.43-1.52-1.08-1.98-1.95c-0.46-0.87-0.69-2-0.69-3.38v-8.64
	c0-0.16,0.04-0.28,0.13-0.37c0.08-0.09,0.21-0.14,0.36-0.14h1.09c0.16,0,0.28,0.05,0.37,0.14c0.09,0.09,0.14,0.22,0.14,0.37v8.69
	c0,1.39,0.33,2.42,0.98,3.09c0.65,0.67,1.55,1,2.68,1c1.12,0,2.01-0.33,2.67-1c0.66-0.67,0.99-1.7,0.99-3.09v-8.69
	c0-0.16,0.05-0.28,0.14-0.37c0.09-0.09,0.21-0.14,0.35-0.14h1.11c0.14,0,0.26,0.05,0.35,0.14c0.09,0.09,0.14,0.22,0.14,0.37v8.64
	c0,1.38-0.23,2.5-0.69,3.38c-0.46,0.87-1.12,1.52-1.97,1.95C121.99,71.76,120.96,71.97,119.75,71.97"/>
<path class="st0" d="M131.89,63.97h3.51c1.07,0,1.86-0.22,2.39-0.67c0.53-0.45,0.79-1.11,0.79-1.99c0-0.86-0.26-1.53-0.78-1.98
	c-0.52-0.45-1.32-0.68-2.4-0.68h-3.51V63.97z M130.29,71.76c-0.16,0-0.28-0.05-0.36-0.14c-0.09-0.09-0.13-0.21-0.13-0.35v-13.9
	c0-0.16,0.04-0.28,0.13-0.37c0.08-0.09,0.21-0.14,0.36-0.14h5.2c1.6,0,2.87,0.38,3.81,1.13c0.94,0.75,1.41,1.87,1.41,3.34
	c0,1.09-0.27,1.98-0.82,2.67c-0.55,0.69-1.29,1.17-2.22,1.44l3.28,5.66c0.04,0.08,0.06,0.16,0.06,0.23c0,0.11-0.05,0.21-0.14,0.3
	c-0.09,0.08-0.2,0.13-0.31,0.13h-1.02c-0.24,0-0.42-0.06-0.53-0.19c-0.11-0.13-0.21-0.26-0.3-0.38l-3.09-5.41h-3.73v5.49
	c0,0.14-0.05,0.26-0.14,0.35c-0.09,0.09-0.22,0.14-0.37,0.14H130.29z"/>
<path class="st0" d="M149.84,71.97c-1.31,0-2.39-0.24-3.25-0.72c-0.86-0.48-1.51-1.16-1.95-2.02c-0.44-0.86-0.68-1.87-0.72-3.02
	c-0.01-0.58-0.02-1.21-0.02-1.87c0-0.67,0.01-1.31,0.02-1.92c0.04-1.15,0.28-2.16,0.72-3.03c0.44-0.86,1.09-1.54,1.95-2.02
	c0.86-0.48,1.94-0.73,3.25-0.73c0.98,0,1.84,0.14,2.58,0.41c0.74,0.27,1.35,0.63,1.84,1.09c0.49,0.45,0.86,0.96,1.12,1.52
	c0.26,0.56,0.4,1.14,0.43,1.73c0.01,0.13-0.03,0.24-0.12,0.32c-0.09,0.09-0.2,0.13-0.33,0.13h-1.17c-0.13,0-0.24-0.03-0.33-0.11
	c-0.09-0.07-0.16-0.2-0.2-0.38c-0.24-1.11-0.69-1.87-1.35-2.28c-0.66-0.41-1.49-0.62-2.48-0.62c-1.13,0-2.04,0.32-2.7,0.97
	c-0.67,0.65-1.03,1.68-1.09,3.1c-0.04,1.16-0.04,2.36,0,3.58c0.06,1.42,0.42,2.45,1.09,3.1c0.67,0.65,1.57,0.97,2.7,0.97
	c0.99,0,1.82-0.21,2.48-0.62c0.66-0.41,1.11-1.17,1.35-2.28c0.04-0.18,0.11-0.31,0.2-0.38c0.09-0.07,0.2-0.11,0.33-0.11h1.17
	c0.13,0,0.24,0.04,0.33,0.13c0.09,0.09,0.13,0.19,0.12,0.32c-0.03,0.6-0.17,1.17-0.43,1.73c-0.26,0.56-0.63,1.07-1.12,1.52
	c-0.49,0.46-1.1,0.82-1.84,1.09C151.68,71.84,150.82,71.97,149.84,71.97"/>
<path class="st0" d="M159.89,71.76c-0.16,0-0.28-0.05-0.36-0.14c-0.09-0.09-0.13-0.21-0.13-0.35v-13.9c0-0.16,0.04-0.28,0.13-0.37
	c0.08-0.09,0.21-0.14,0.36-0.14h1.09c0.16,0,0.28,0.05,0.37,0.14c0.09,0.09,0.14,0.22,0.14,0.37v5.88h7.32v-5.88
	c0-0.16,0.05-0.28,0.14-0.37c0.09-0.09,0.21-0.14,0.35-0.14h1.09c0.16,0,0.28,0.05,0.37,0.14c0.09,0.09,0.14,0.22,0.14,0.37v13.9
	c0,0.14-0.05,0.26-0.14,0.35c-0.09,0.09-0.22,0.14-0.37,0.14h-1.09c-0.14,0-0.26-0.05-0.35-0.14c-0.09-0.09-0.14-0.21-0.14-0.35
	v-6.11h-7.32v6.11c0,0.14-0.05,0.26-0.14,0.35c-0.09,0.09-0.22,0.14-0.37,0.14H159.89z"/>
<path class="st1" d="M59.45,56.97V84.5c0,0.23-0.13,0.45-0.34,0.55L8.3,110.48c-0.41,0.21-0.89-0.09-0.89-0.55V99.15
	c0-0.24,0.13-0.45,0.34-0.55l40.91-20.48c0.21-0.11,0.34-0.32,0.34-0.55V61.58c0-0.23,0.13-0.45,0.34-0.55l9.21-4.61
	C58.97,56.21,59.45,56.51,59.45,56.97"/>
<path class="st1" d="M59.4,8.71v10.67c0,0.23-0.13,0.45-0.34,0.55l-40.9,20.48c-0.21,0.1-0.34,0.32-0.34,0.55v15.61
	c0,0.24-0.13,0.45-0.34,0.55L8.3,61.71c-0.41,0.21-0.89-0.09-0.89-0.55V34.12c0-0.23,0.13-0.45,0.34-0.55L58.5,8.16
	C58.91,7.96,59.4,8.26,59.4,8.71"/>
<path class="st1" d="M38.9,54.57l20.21-10.11c0.21-0.11,0.34-0.32,0.34-0.55V32.43c0-0.46-0.48-0.76-0.9-0.55l-29.95,15
	c-0.21,0.1-0.34,0.32-0.34,0.55v15.61c0,0.24-0.13,0.45-0.34,0.55L7.75,73.67c-0.21,0.1-0.34,0.32-0.34,0.55v11.86
	c0,0.46,0.48,0.76,0.89,0.55l29.91-14.97c0.21-0.11,0.34-0.32,0.34-0.55V55.12C38.56,54.89,38.69,54.68,38.9,54.57"/>
</svg>
