<?xml version="1.0" encoding="utf-8"?>
<!-- Generator: Adobe Illustrator 26.0.3, SVG Export Plug-In . SVG Version: 6.00 Build 0)  -->
<svg version="1.1" id="Layer_1" xmlns="http://www.w3.org/2000/svg" xmlns:xlink="http://www.w3.org/1999/xlink" x="0px" y="0px"
	 viewBox="0 0 300 300" style="enable-background:new 0 0 300 300;" xml:space="preserve">
<style type="text/css">
	.st0{fill:#FFFFFF;}
	.st1{fill:#298A9E;}
</style>
<g>
	<path class="st0" d="M27.12,225.87c-2.31,0-4.24-0.34-5.79-1.02c-1.55-0.68-2.73-1.57-3.54-2.68c-0.81-1.1-1.24-2.26-1.28-3.48
		c0-0.22,0.07-0.41,0.22-0.56c0.15-0.15,0.34-0.22,0.56-0.22h3.31c0.32,0,0.57,0.07,0.73,0.2c0.16,0.14,0.3,0.3,0.43,0.5
		c0.15,0.47,0.44,0.94,0.86,1.4c0.42,0.46,1,0.84,1.73,1.14c0.73,0.3,1.66,0.45,2.77,0.45c1.79,0,3.12-0.3,4-0.89
		c0.88-0.6,1.32-1.4,1.32-2.42c0-0.72-0.23-1.3-0.71-1.73c-0.47-0.43-1.2-0.83-2.18-1.19c-0.98-0.36-2.28-0.74-3.89-1.14
		c-1.86-0.45-3.42-0.98-4.67-1.62c-1.25-0.63-2.2-1.43-2.83-2.4c-0.63-0.97-0.95-2.2-0.95-3.68c0-1.44,0.39-2.72,1.17-3.84
		c0.78-1.12,1.9-2,3.35-2.64c1.45-0.65,3.18-0.97,5.19-0.97c1.61,0,3.04,0.22,4.28,0.65c1.24,0.44,2.27,1.01,3.09,1.71
		c0.82,0.71,1.45,1.46,1.88,2.27c0.43,0.81,0.66,1.6,0.69,2.37c0,0.2-0.07,0.38-0.2,0.54c-0.14,0.16-0.33,0.24-0.58,0.24h-3.46
		c-0.2,0-0.4-0.05-0.6-0.15c-0.2-0.1-0.36-0.28-0.48-0.56c-0.15-0.77-0.63-1.43-1.45-1.97c-0.82-0.55-1.87-0.82-3.16-0.82
		c-1.34,0-2.42,0.25-3.24,0.74c-0.82,0.5-1.23,1.27-1.23,2.31c0,0.69,0.2,1.27,0.61,1.73c0.41,0.46,1.07,0.86,1.97,1.21
		c0.9,0.35,2.1,0.72,3.59,1.12c2.11,0.47,3.83,1.02,5.17,1.64c1.34,0.62,2.32,1.41,2.94,2.36c0.62,0.96,0.93,2.16,0.93,3.63
		c0,1.64-0.44,3.03-1.32,4.19c-0.88,1.15-2.12,2.04-3.7,2.66C31.08,225.55,29.23,225.87,27.12,225.87"/>
	<path class="st0" d="M49.6,225.49c-0.25,0-0.46-0.09-0.63-0.26c-0.17-0.17-0.26-0.39-0.26-0.63v-20.58h-6.89
		c-0.25,0-0.46-0.09-0.63-0.26c-0.17-0.17-0.26-0.39-0.26-0.63v-2.75c0-0.27,0.09-0.5,0.26-0.67c0.17-0.17,0.39-0.26,0.63-0.26
		h18.98c0.27,0,0.49,0.09,0.67,0.26c0.17,0.17,0.26,0.4,0.26,0.67v2.75c0,0.25-0.09,0.46-0.26,0.63c-0.18,0.17-0.4,0.26-0.67,0.26
		h-6.85v20.58c0,0.25-0.09,0.46-0.26,0.63c-0.18,0.17-0.4,0.26-0.67,0.26H49.6z"/>
	<path class="st0" d="M76.33,221.59c1.61,0,2.93-0.48,3.95-1.43c1.02-0.95,1.56-2.51,1.64-4.67c0.05-1.09,0.07-2.1,0.07-3.03
		c0-0.93-0.02-1.93-0.07-3c-0.05-1.44-0.32-2.61-0.8-3.52c-0.48-0.9-1.13-1.56-1.95-1.97c-0.82-0.41-1.76-0.61-2.83-0.61
		c-1.04,0-1.97,0.21-2.79,0.61c-0.82,0.41-1.47,1.07-1.95,1.97c-0.48,0.91-0.75,2.08-0.8,3.52c-0.02,1.07-0.04,2.07-0.04,3
		c0,0.93,0.01,1.94,0.04,3.03c0.07,2.16,0.62,3.72,1.64,4.67C73.44,221.11,74.74,221.59,76.33,221.59 M76.33,225.87
		c-2.21,0-4.11-0.37-5.69-1.1c-1.59-0.73-2.83-1.86-3.72-3.39c-0.89-1.53-1.38-3.43-1.45-5.71c-0.02-1.07-0.04-2.12-0.04-3.16
		c0-1.04,0.01-2.11,0.04-3.2c0.07-2.26,0.57-4.14,1.49-5.66c0.92-1.51,2.18-2.65,3.78-3.42c1.6-0.77,3.47-1.15,5.6-1.15
		c2.13,0,4.01,0.39,5.62,1.15c1.61,0.77,2.88,1.91,3.8,3.42c0.92,1.51,1.41,3.4,1.49,5.66c0.05,1.09,0.07,2.16,0.07,3.2
		c0,1.04-0.02,2.1-0.07,3.16c-0.07,2.28-0.56,4.19-1.45,5.71s-2.14,2.66-3.74,3.39C80.44,225.5,78.54,225.87,76.33,225.87"/>
	<path class="st0" d="M94.38,225.49c-0.25,0-0.46-0.09-0.63-0.26c-0.17-0.17-0.26-0.39-0.26-0.63v-24.23c0-0.27,0.09-0.5,0.26-0.67
		c0.17-0.17,0.38-0.26,0.63-0.26h2.87c0.35,0,0.6,0.08,0.76,0.24c0.16,0.16,0.27,0.28,0.32,0.35l10.72,16.67v-16.34
		c0-0.27,0.08-0.5,0.24-0.67c0.16-0.17,0.38-0.26,0.65-0.26h3.13c0.27,0,0.49,0.09,0.67,0.26c0.17,0.17,0.26,0.4,0.26,0.67v24.19
		c0,0.27-0.09,0.5-0.26,0.67c-0.18,0.17-0.39,0.26-0.63,0.26h-2.9c-0.35,0-0.59-0.09-0.74-0.26c-0.15-0.17-0.26-0.29-0.33-0.34
		l-10.68-16.3v16c0,0.25-0.09,0.46-0.26,0.63c-0.17,0.17-0.4,0.26-0.67,0.26H94.38z"/>
	<path class="st0" d="M128.84,225.49c-0.25,0-0.46-0.09-0.63-0.26c-0.17-0.17-0.26-0.39-0.26-0.63v-8.41l-8.78-15.56
		c-0.02-0.05-0.05-0.11-0.07-0.19c-0.02-0.07-0.04-0.15-0.04-0.22c0-0.22,0.07-0.41,0.22-0.56c0.15-0.15,0.32-0.22,0.52-0.22h3.31
		c0.3,0,0.54,0.07,0.73,0.22c0.19,0.15,0.31,0.31,0.39,0.48l6.33,10.83l6.29-10.83c0.1-0.17,0.24-0.33,0.43-0.48
		c0.19-0.15,0.43-0.22,0.73-0.22h3.28c0.22,0,0.41,0.07,0.56,0.22c0.15,0.15,0.22,0.33,0.22,0.56c0,0.07-0.01,0.15-0.02,0.22
		c-0.01,0.07-0.04,0.14-0.09,0.19l-8.78,15.56v8.41c0,0.25-0.09,0.46-0.26,0.63c-0.17,0.17-0.4,0.26-0.67,0.26H128.84z"/>
	<path class="st0" d="M161.03,221.55h6.22c1.34,0,2.36-0.36,3.05-1.1c0.69-0.73,1.04-1.62,1.04-2.66c0-1.09-0.35-2-1.06-2.72
		c-0.71-0.72-1.72-1.08-3.03-1.08h-6.22V221.55z M161.03,210.12h5.84c1.32,0,2.3-0.32,2.96-0.95c0.66-0.63,0.99-1.46,0.99-2.47
		c0-1.04-0.33-1.86-0.99-2.44c-0.66-0.58-1.64-0.87-2.96-0.87h-5.84V210.12z M156.75,225.49c-0.25,0-0.46-0.09-0.63-0.26
		c-0.18-0.17-0.26-0.39-0.26-0.63v-24.23c0-0.27,0.09-0.5,0.26-0.67c0.17-0.17,0.38-0.26,0.63-0.26h10.79c2.01,0,3.65,0.3,4.91,0.91
		c1.27,0.61,2.2,1.45,2.81,2.51c0.61,1.07,0.91,2.31,0.91,3.72c0,0.94-0.17,1.77-0.5,2.48c-0.33,0.71-0.74,1.28-1.23,1.73
		c-0.48,0.44-0.96,0.79-1.43,1.04c0.97,0.45,1.82,1.19,2.57,2.23c0.74,1.04,1.11,2.28,1.11,3.72c0,1.49-0.33,2.82-1,3.98
		c-0.67,1.17-1.66,2.08-2.98,2.74c-1.32,0.66-2.94,0.99-4.88,0.99H156.75z"/>
	<path class="st0" d="M187.87,211.46h5.25c1.51,0,2.64-0.34,3.39-1.02c0.74-0.68,1.12-1.64,1.12-2.88c0-1.24-0.37-2.21-1.1-2.92
		c-0.73-0.71-1.87-1.06-3.41-1.06h-5.25V211.46z M183.59,225.49c-0.25,0-0.46-0.09-0.63-0.26c-0.17-0.17-0.26-0.39-0.26-0.63v-24.23
		c0-0.27,0.09-0.5,0.26-0.67c0.17-0.17,0.38-0.26,0.63-0.26h9.64c3,0,5.37,0.69,7.11,2.08c1.74,1.39,2.61,3.41,2.61,6.07
		c0,1.84-0.45,3.36-1.36,4.58c-0.91,1.22-2.12,2.1-3.63,2.64l5.43,9.49c0.07,0.15,0.11,0.29,0.11,0.41c0,0.22-0.08,0.41-0.24,0.56
		c-0.16,0.15-0.34,0.22-0.54,0.22h-3.39c-0.42,0-0.74-0.11-0.97-0.33c-0.23-0.22-0.4-0.45-0.52-0.67l-4.8-8.82h-5.17v8.93
		c0,0.25-0.08,0.46-0.24,0.63c-0.16,0.17-0.38,0.26-0.65,0.26H183.59z"/>
	<path class="st0" d="M218.98,221.59c1.61,0,2.93-0.48,3.95-1.43c1.02-0.95,1.56-2.51,1.64-4.67c0.05-1.09,0.07-2.1,0.07-3.03
		c0-0.93-0.02-1.93-0.07-3c-0.05-1.44-0.32-2.61-0.8-3.52c-0.48-0.9-1.13-1.56-1.95-1.97c-0.82-0.41-1.76-0.61-2.83-0.61
		c-1.04,0-1.97,0.21-2.79,0.61c-0.82,0.41-1.47,1.07-1.95,1.97c-0.48,0.91-0.75,2.08-0.8,3.52c-0.02,1.07-0.04,2.07-0.04,3
		c0,0.93,0.01,1.94,0.04,3.03c0.07,2.16,0.62,3.72,1.64,4.67C216.09,221.11,217.4,221.59,218.98,221.59 M218.98,225.87
		c-2.21,0-4.11-0.37-5.69-1.1c-1.59-0.73-2.83-1.86-3.72-3.39s-1.38-3.43-1.45-5.71c-0.02-1.07-0.04-2.12-0.04-3.16
		c0-1.04,0.01-2.11,0.04-3.2c0.07-2.26,0.57-4.14,1.49-5.66c0.92-1.51,2.18-2.65,3.78-3.42c1.6-0.77,3.47-1.15,5.6-1.15
		c2.13,0,4.01,0.39,5.62,1.15c1.61,0.77,2.88,1.91,3.8,3.42c0.92,1.51,1.41,3.4,1.49,5.66c0.05,1.09,0.07,2.16,0.07,3.2
		c0,1.04-0.02,2.1-0.07,3.16c-0.07,2.28-0.56,4.19-1.45,5.71s-2.14,2.66-3.74,3.39C223.1,225.5,221.19,225.87,218.98,225.87"/>
	<path class="st0" d="M246.15,221.59c1.61,0,2.93-0.48,3.95-1.43c1.02-0.95,1.56-2.51,1.64-4.67c0.05-1.09,0.07-2.1,0.07-3.03
		c0-0.93-0.02-1.93-0.07-3c-0.05-1.44-0.32-2.61-0.8-3.52c-0.48-0.9-1.13-1.56-1.95-1.97c-0.82-0.41-1.76-0.61-2.83-0.61
		c-1.04,0-1.97,0.21-2.79,0.61c-0.82,0.41-1.47,1.07-1.95,1.97c-0.48,0.91-0.75,2.08-0.8,3.52c-0.02,1.07-0.04,2.07-0.04,3
		c0,0.93,0.01,1.94,0.04,3.03c0.07,2.16,0.62,3.72,1.64,4.67C243.26,221.11,244.57,221.59,246.15,221.59 M246.15,225.87
		c-2.21,0-4.11-0.37-5.69-1.1c-1.59-0.73-2.83-1.86-3.72-3.39s-1.38-3.43-1.45-5.71c-0.02-1.07-0.04-2.12-0.04-3.16
		c0-1.04,0.01-2.11,0.04-3.2c0.07-2.26,0.57-4.14,1.49-5.66c0.92-1.51,2.18-2.65,3.78-3.42c1.6-0.77,3.47-1.15,5.6-1.15
		c2.13,0,4.01,0.39,5.62,1.15c1.61,0.77,2.88,1.91,3.8,3.42c0.92,1.51,1.41,3.4,1.49,5.66c0.05,1.09,0.07,2.16,0.07,3.2
		c0,1.04-0.02,2.1-0.07,3.16c-0.07,2.28-0.56,4.19-1.45,5.71s-2.14,2.66-3.74,3.39C250.27,225.5,248.36,225.87,246.15,225.87"/>
	<path class="st0" d="M264.2,225.49c-0.25,0-0.46-0.09-0.63-0.26c-0.17-0.17-0.26-0.39-0.26-0.63v-24.23c0-0.27,0.09-0.5,0.26-0.67
		c0.17-0.17,0.38-0.26,0.63-0.26h3.28c0.27,0,0.5,0.09,0.67,0.26c0.17,0.17,0.26,0.4,0.26,0.67v8.71l8.41-8.97
		c0.1-0.12,0.27-0.27,0.5-0.43c0.23-0.16,0.55-0.24,0.95-0.24h3.68c0.2,0,0.38,0.07,0.54,0.22c0.16,0.15,0.24,0.33,0.24,0.56
		c0,0.17-0.05,0.32-0.15,0.45l-10.24,11.24l10.94,12.32c0.12,0.15,0.19,0.31,0.19,0.48c0,0.22-0.08,0.41-0.24,0.56
		c-0.16,0.15-0.34,0.22-0.54,0.22h-3.83c-0.42,0-0.75-0.09-0.99-0.28c-0.23-0.19-0.39-0.32-0.46-0.39l-9.01-9.86v9.64
		c0,0.25-0.09,0.46-0.26,0.63c-0.17,0.17-0.4,0.26-0.67,0.26H264.2z"/>
	<path class="st0" d="M100.42,256.42c-1.66,0-3.04-0.31-4.14-0.92c-1.1-0.62-1.92-1.48-2.48-2.58c-0.56-1.1-0.87-2.39-0.92-3.85
		c-0.02-0.74-0.03-1.54-0.03-2.39c0-0.85,0.01-1.67,0.03-2.44c0.06-1.47,0.36-2.75,0.92-3.86c0.56-1.1,1.39-1.96,2.48-2.58
		c1.1-0.61,2.48-0.92,4.14-0.92c1.25,0,2.34,0.17,3.29,0.52c0.94,0.34,1.72,0.81,2.35,1.38c0.62,0.58,1.1,1.23,1.43,1.94
		c0.32,0.72,0.51,1.45,0.54,2.21c0.02,0.16-0.03,0.3-0.15,0.41c-0.12,0.11-0.26,0.16-0.42,0.16h-1.49c-0.16,0-0.3-0.05-0.42-0.14
		c-0.12-0.09-0.2-0.25-0.26-0.49c-0.31-1.41-0.88-2.38-1.72-2.9c-0.84-0.52-1.9-0.79-3.16-0.79c-1.45,0-2.6,0.41-3.45,1.24
		c-0.85,0.82-1.31,2.14-1.39,3.95c-0.05,1.48-0.05,3,0,4.56c0.07,1.81,0.53,3.13,1.39,3.95c0.85,0.82,2,1.24,3.45,1.24
		c1.27,0,2.32-0.26,3.16-0.79c0.84-0.52,1.41-1.49,1.72-2.91c0.05-0.23,0.14-0.4,0.26-0.49c0.12-0.09,0.26-0.14,0.42-0.14h1.49
		c0.16,0,0.3,0.06,0.42,0.16c0.12,0.11,0.17,0.24,0.15,0.41c-0.04,0.76-0.22,1.5-0.54,2.21c-0.33,0.71-0.8,1.36-1.43,1.94
		c-0.62,0.58-1.41,1.04-2.35,1.39C102.77,256.24,101.67,256.42,100.42,256.42"/>
	<path class="st0" d="M113.24,256.14c-0.2,0-0.35-0.06-0.46-0.18c-0.11-0.12-0.16-0.27-0.16-0.45v-17.73c0-0.2,0.05-0.36,0.16-0.48
		c0.11-0.12,0.26-0.18,0.46-0.18h1.38c0.2,0,0.36,0.06,0.48,0.18c0.12,0.12,0.18,0.28,0.18,0.48v7.49h9.34v-7.49
		c0-0.2,0.06-0.36,0.18-0.48c0.12-0.12,0.27-0.18,0.45-0.18h1.38c0.2,0,0.36,0.06,0.48,0.18c0.12,0.12,0.18,0.28,0.18,0.48v17.73
		c0,0.18-0.06,0.33-0.18,0.45c-0.12,0.12-0.27,0.18-0.48,0.18h-1.38c-0.18,0-0.33-0.06-0.45-0.18c-0.12-0.12-0.18-0.27-0.18-0.45
		v-7.79h-9.34v7.79c0,0.18-0.06,0.33-0.18,0.45c-0.12,0.12-0.28,0.18-0.48,0.18H113.24z"/>
	<path class="st0" d="M140.08,256.42c-1.52,0-2.83-0.27-3.92-0.82c-1.1-0.54-1.94-1.37-2.53-2.48c-0.59-1.11-0.88-2.55-0.88-4.3
		v-11.02c0-0.2,0.06-0.36,0.16-0.48c0.11-0.12,0.26-0.18,0.46-0.18h1.38c0.2,0,0.36,0.06,0.48,0.18c0.12,0.12,0.18,0.28,0.18,0.48
		v11.08c0,1.78,0.42,3.09,1.25,3.94c0.83,0.85,1.97,1.28,3.42,1.28c1.43,0,2.57-0.43,3.41-1.28c0.84-0.85,1.26-2.16,1.26-3.94
		v-11.08c0-0.2,0.06-0.36,0.18-0.48c0.12-0.12,0.27-0.18,0.45-0.18h1.41c0.18,0,0.33,0.06,0.45,0.18c0.12,0.12,0.18,0.28,0.18,0.48
		v11.02c0,1.76-0.29,3.19-0.88,4.3c-0.59,1.11-1.42,1.94-2.51,2.48C142.93,256.14,141.62,256.42,140.08,256.42"/>
	<path class="st0" d="M155.56,246.21h4.48c1.36,0,2.37-0.28,3.04-0.86c0.67-0.57,1-1.42,1-2.54c0-1.1-0.33-1.95-0.99-2.52
		c-0.66-0.58-1.68-0.87-3.05-0.87h-4.48V246.21z M153.52,256.14c-0.2,0-0.35-0.06-0.46-0.18c-0.11-0.12-0.16-0.27-0.16-0.45v-17.73
		c0-0.2,0.05-0.36,0.16-0.48c0.11-0.12,0.26-0.18,0.46-0.18h6.62c2.04,0,3.67,0.48,4.86,1.44c1.19,0.96,1.79,2.38,1.79,4.26
		c0,1.4-0.35,2.53-1.04,3.41c-0.7,0.88-1.64,1.49-2.84,1.83l4.18,7.22c0.05,0.11,0.08,0.21,0.08,0.3c0,0.15-0.06,0.27-0.18,0.38
		c-0.12,0.11-0.25,0.16-0.39,0.16h-1.3c-0.31,0-0.53-0.08-0.68-0.24c-0.15-0.16-0.27-0.33-0.38-0.49l-3.94-6.89h-4.75v7
		c0,0.18-0.06,0.33-0.18,0.45c-0.12,0.12-0.28,0.18-0.48,0.18H153.52z"/>
	<path class="st0" d="M178.44,256.42c-1.66,0-3.04-0.31-4.14-0.92c-1.1-0.62-1.92-1.48-2.48-2.58c-0.56-1.1-0.87-2.39-0.92-3.85
		c-0.02-0.74-0.03-1.54-0.03-2.39c0-0.85,0.01-1.67,0.03-2.44c0.06-1.47,0.36-2.75,0.92-3.86c0.56-1.1,1.39-1.96,2.48-2.58
		c1.1-0.61,2.48-0.92,4.14-0.92c1.25,0,2.34,0.17,3.29,0.52c0.94,0.34,1.72,0.81,2.35,1.38c0.62,0.58,1.1,1.23,1.43,1.94
		c0.32,0.72,0.51,1.45,0.54,2.21c0.02,0.16-0.03,0.3-0.15,0.41c-0.12,0.11-0.26,0.16-0.42,0.16h-1.49c-0.16,0-0.3-0.05-0.42-0.14
		c-0.12-0.09-0.2-0.25-0.26-0.49c-0.31-1.41-0.88-2.38-1.72-2.9c-0.84-0.52-1.9-0.79-3.16-0.79c-1.45,0-2.6,0.41-3.45,1.24
		c-0.85,0.82-1.31,2.14-1.39,3.95c-0.05,1.48-0.05,3,0,4.56c0.07,1.81,0.53,3.13,1.39,3.95c0.85,0.82,2,1.24,3.45,1.24
		c1.27,0,2.32-0.26,3.16-0.79c0.84-0.52,1.41-1.49,1.72-2.91c0.05-0.23,0.14-0.4,0.26-0.49c0.12-0.09,0.26-0.14,0.42-0.14h1.49
		c0.16,0,0.3,0.06,0.42,0.16c0.12,0.11,0.17,0.24,0.15,0.41c-0.04,0.76-0.22,1.5-0.54,2.21c-0.33,0.71-0.8,1.36-1.43,1.94
		c-0.62,0.58-1.41,1.04-2.35,1.39C180.79,256.24,179.69,256.42,178.44,256.42"/>
	<path class="st0" d="M191.26,256.14c-0.2,0-0.35-0.06-0.46-0.18c-0.11-0.12-0.16-0.27-0.16-0.45v-17.73c0-0.2,0.05-0.36,0.16-0.48
		c0.11-0.12,0.26-0.18,0.46-0.18h1.38c0.2,0,0.36,0.06,0.48,0.18c0.12,0.12,0.18,0.28,0.18,0.48v7.49h9.34v-7.49
		c0-0.2,0.06-0.36,0.18-0.48c0.12-0.12,0.27-0.18,0.45-0.18h1.38c0.2,0,0.36,0.06,0.48,0.18c0.12,0.12,0.18,0.28,0.18,0.48v17.73
		c0,0.18-0.06,0.33-0.18,0.45c-0.12,0.12-0.28,0.18-0.48,0.18h-1.38c-0.18,0-0.33-0.06-0.45-0.18c-0.12-0.12-0.18-0.27-0.18-0.45
		v-7.79h-9.34v7.79c0,0.18-0.06,0.33-0.18,0.45c-0.12,0.12-0.28,0.18-0.48,0.18H191.26z"/>
	<path class="st1" d="M182.6,105.9v35.1c0,0.3-0.17,0.57-0.44,0.71l-64.77,32.42c-0.52,0.26-1.14-0.12-1.14-0.71v-13.74
		c0-0.3,0.17-0.57,0.44-0.7l52.16-26.11c0.27-0.13,0.44-0.4,0.44-0.7v-20.38c0-0.3,0.17-0.57,0.44-0.7l11.74-5.88
		C181.98,104.93,182.6,105.31,182.6,105.9"/>
	<path class="st1" d="M182.53,44.37v13.6c0,0.3-0.17,0.57-0.44,0.7l-52.15,26.1c-0.27,0.13-0.44,0.41-0.44,0.7v19.9
		c0,0.3-0.17,0.57-0.44,0.7l-11.69,5.85c-0.52,0.26-1.14-0.12-1.14-0.71V76.76c0-0.3,0.17-0.57,0.44-0.71l64.71-32.39
		C181.91,43.41,182.53,43.79,182.53,44.37"/>
	<path class="st1" d="M156.4,102.84l25.76-12.89c0.27-0.13,0.44-0.41,0.44-0.7V74.6c0-0.59-0.62-0.97-1.14-0.7l-38.19,19.12
		c-0.27,0.13-0.44,0.41-0.44,0.7v19.9c0,0.3-0.17,0.57-0.44,0.7l-25.71,12.87c-0.27,0.13-0.44,0.41-0.44,0.7v15.12
		c0,0.59,0.62,0.97,1.14,0.7l38.14-19.09c0.27-0.13,0.44-0.41,0.44-0.7v-20.39C155.97,103.25,156.13,102.97,156.4,102.84"/>
</g>
</svg>
